<?xml version="1.0" standalone="no"?>
<!DOCTYPE svg PUBLIC "-//W3C//DTD SVG 20010904//EN"
 "http://www.w3.org/TR/2001/REC-SVG-20010904/DTD/svg10.dtd">
<svg version="1.0" xmlns="http://www.w3.org/2000/svg"
 width="800.000000pt" height="800.000000pt" viewBox="0 0 800.000000 800.000000"
 preserveAspectRatio="xMidYMid meet">

<g transform="translate(0.000000,800.000000) scale(0.100000,-0.100000)"
fill="#000000" stroke="none">
<path d="M4124 7053 c-20 -32 -96 -150 -167 -263 -71 -113 -205 -324 -298
-470 -92 -146 -169 -272 -171 -280 -2 -8 -6 -17 -9 -20 -9 -7 -91 -1056 -87
-1110 l3 -45 -97 -72 c-53 -40 -105 -73 -115 -73 -10 0 -71 13 -135 29 l-117
28 -19 -21 c-11 -12 -32 -40 -47 -64 -23 -34 -32 -41 -49 -36 -12 3 -61 19
-111 34 -49 16 -256 79 -460 140 -203 62 -518 157 -699 212 -323 98 -352 104
-363 72 -2 -6 119 -100 268 -210 410 -301 462 -339 761 -561 l278 -205 -103
-152 c-57 -83 -175 -257 -263 -386 -87 -129 -234 -345 -325 -480 -143 -211
-165 -247 -153 -260 16 -16 1 -21 304 95 175 67 231 88 983 374 219 83 403
151 408 151 12 0 684 -486 710 -513 18 -20 19 -41 19 -667 0 -614 -1 -648 -18
-663 -10 -10 -22 -17 -25 -17 -4 0 -73 -42 -154 -94 -82 -51 -305 -192 -498
-311 -192 -120 -351 -219 -353 -220 -1 -1 2 -14 7 -29 l11 -26 1019 0 1019 0
5 27 c3 16 2 30 -2 33 -5 3 -222 147 -484 320 l-477 315 0 665 0 665 813 811
812 811 367 -163 c209 -93 374 -161 383 -158 8 3 15 12 15 19 0 23 -390 669
-417 692 -26 21 -31 21 -282 17 -141 -3 -271 -7 -288 -10 -24 -4 -88 -52 -239
-179 -114 -96 -209 -175 -213 -175 -3 1 -60 40 -126 88 l-119 88 -243 915
c-134 502 -269 1012 -301 1132 -55 208 -59 219 -89 238 l-32 20 -37 -58z m99
-173 c20 -74 102 -382 182 -685 305 -1148 355 -1337 355 -1340 0 -2 -154 107
-342 241 -188 134 -348 244 -355 244 -16 0 -63 -28 -79 -46 -5 -7 -59 -48
-120 -91 -60 -44 -176 -128 -259 -187 -82 -60 -156 -113 -164 -120 -12 -9 -13
-5 -8 24 3 19 25 271 48 560 l41 525 53 85 c29 47 159 254 290 460 131 206
254 401 274 432 22 36 38 53 42 45 4 -7 23 -73 42 -147z m-34 -1683 c154 -111
634 -454 741 -530 47 -33 89 -63 93 -67 5 -4 -53 -60 -129 -124 -132 -112
-138 -116 -155 -99 -9 10 -162 212 -339 448 -178 237 -327 436 -333 443 -21
27 12 8 122 -71z m174 -407 c184 -245 333 -446 332 -448 -3 -4 -1427 349
-1435 356 -3 2 2 8 11 13 9 4 43 28 75 52 33 24 97 71 144 105 47 34 184 133
305 221 121 88 223 157 227 153 4 -4 157 -207 341 -452z m-2708 166 c154 -46
424 -128 600 -181 502 -152 547 -166 542 -179 -3 -6 -67 -102 -142 -214 -93
-137 -141 -200 -149 -194 -11 9 -301 223 -626 462 -434 320 -543 402 -525 397
11 -3 146 -44 300 -91z m3906 -480 l-464 -464 -154 146 c-84 81 -153 151 -152
157 0 5 72 71 161 145 88 74 195 164 237 200 330 280 309 265 365 271 28 3
145 6 261 7 l210 2 -464 -464z m700 141 c89 -148 159 -270 157 -272 -2 -2 -46
16 -98 40 -52 23 -189 84 -305 135 -115 50 -214 96 -220 101 -6 6 45 63 135
154 132 132 146 144 158 128 7 -10 85 -139 173 -286z m-2474 -103 c455 -113
833 -209 840 -213 12 -6 -57 -82 -276 -305 l-116 -118 -155 -58 c-85 -32 -285
-108 -444 -169 -159 -61 -294 -111 -300 -111 -6 0 -24 -7 -41 -16 -16 -8 -165
-67 -330 -129 -251 -95 -857 -325 -1145 -435 -41 -15 -77 -27 -79 -25 -3 4
731 1092 778 1154 14 18 31 42 37 53 33 57 389 578 396 578 4 0 380 -93 835
-206z m1071 -343 c59 -55 128 -121 154 -148 l48 -48 -485 -485 -484 -484 -28
20 c-46 34 -318 230 -488 352 -88 63 -164 118 -168 122 -4 4 32 22 80 40 48
18 203 76 343 130 140 54 295 112 343 130 l88 33 214 219 c118 121 215 224
215 228 0 27 75 -22 168 -109z m-560 -2714 c119 -79 322 -213 451 -298 l235
-154 -461 -3 c-254 -1 -671 -1 -927 0 l-465 3 92 56 c83 50 267 166 667 416
74 47 146 93 160 103 14 11 26 19 28 19 2 1 101 -63 220 -142z"/>
</g>
</svg>
